<svg xmlns="http://www.w3.org/2000/svg" width="1180" height="110" viewBox="0 0 1180 110" preserveAspectRatio="none" role="img" aria-label="wave"><g><path d="M-240,52 q60,-26 120,0 t120,0 t120,0 t120,0 t120,0 t120,0 t120,0 t120,0 t120,0 t120,0 t120,0 t120,0 t120,0 t120,0 L1420,110 L-240,110 Z" fill="#5C0A0A" opacity="0.5"><animateTransform attributeName="transform" type="translate" values="0 0; -240 0" dur="11s" begin="0s" repeatCount="indefinite"/></path></g><g><path d="M-240,62 q60,-32 120,0 t120,0 t120,0 t120,0 t120,0 t120,0 t120,0 t120,0 t120,0 t120,0 t120,0 t120,0 t120,0 t120,0 L1420,110 L-240,110 Z" fill="#C1121F" opacity="0.65"><animateTransform attributeName="transform" type="translate" values="0 0; -240 0" dur="7s" begin="-2s" repeatCount="indefinite"/></path></g><g><path d="M-240,72 q60,-26 120,0 t120,0 t120,0 t120,0 t120,0 t120,0 t120,0 t120,0 t120,0 t120,0 t120,0 t120,0 t120,0 t120,0 L1420,110 L-240,110 Z" fill="#FF3131" opacity="0.9"><animateTransform attributeName="transform" type="translate" values="0 0; -240 0" dur="5s" begin="-4s" repeatCount="indefinite"/></path></g></svg>